PathFileType	4	(X/Y/Z)	C:\Users\WrightLab\Desktop\Jo\P5V14.trc
DataRate	CameraRate	NumFrames	NumMarkers	Units	OrigDataRate	OrigDataStartFrame	OrigNumFrames
100.00	100.00	       18	19	mm	100.00	72	       575
Frame#	Time	Headset_Front			Headset_Back			Headset_Left			Headset_Right			Left_Shoulder			Right_Shoulder			Sternum			C7			Left Elbow			Right Elbow			Left Wrist			Right Wrist			Left ASIS			Right ASIS			S2			Left Knee			Right Knee			Left Ankle			Right Ankle			
		X1	Y1	Z1	X2	Y2	Z2	X3	Y3	Z3	X4	Y4	Z4	X5	Y5	Z5	X6	Y6	Z6	X7	Y7	Z7	X8	Y8	Z8	X9	Y9	Z9	X10	Y10	Z10	X11	Y11	Z11	X12	Y12	Z12	X13	Y13	Z13	X14	Y14	Z14	X15	Y15	Z15	X16	Y16	Z16	X17	Y17	Z17	X18	Y18	Z18	X19	Y19	Z19	

72	0.710	-87.98203	1541.58679	-795.26117	87.09468	1184.83215	-1124.18054																-238.35291	1498.47388	-1125.80115				-471.78677	1149.97241	-1003.16754	137.60468	961.56085	-1031.30981	-390.15921	1020.65521	-806.18500	0.48168	917.63513	-971.92902	-277.49496	917.98712	-902.31525	-173.79814	947.78973	-1190.44446	42.74004	487.77408	-926.23810	-371.31918	470.75394	-957.93646	-27.49171	79.23920	-976.29022	-369.80942	98.43423	-1203.60522	
73	0.720	-83.47668	1542.36011	-790.81610													-372.33011	1414.03735	-946.87585				-234.47980	1498.45825	-1121.72412				-467.72900	1150.00134	-999.37195	142.11992	962.25806	-1026.36438	-385.61130	1020.10010	-802.05731	6.69537	918.11621	-967.99841	-271.28299	917.52399	-897.32001	-169.43298	947.43274	-1185.21082	46.94299	486.20728	-926.54919	-365.41287	470.77612	-951.43372	-26.13250	77.43268	-976.62646	-369.42517	100.99990	-1200.89929	
74	0.730	-80.34023	1543.48193	-786.64044	95.28323	1186.07629	-1116.86804										-368.60342	1413.78564	-942.16803				-230.34488	1498.61023	-1116.91296				-463.23706	1149.81506	-994.73798	147.19749	962.98969	-1021.82910	-383.07831	1019.03564	-798.46729	12.67289	918.08118	-964.36359	-262.28583	921.07373	-888.49988	-164.94986	947.34357	-1180.57385	50.57972	484.55447	-927.77838	-358.20752	470.18063	-945.42493	-24.84001	77.28001	-976.37921	-369.62903	104.88653	-1199.85400	
75	0.740	-74.98235	1544.16516	-781.79578	100.68086	1186.44324	-1111.91736										-364.43088	1413.97693	-937.48651				-226.28471	1498.45544	-1112.04187				-458.43750	1150.26318	-991.22577	151.81453	963.63293	-1016.89050	-378.23270	1018.92255	-794.04010	18.19874	919.07770	-959.33551	-256.21027	919.04956	-886.73749	-160.29402	947.27051	-1175.39478	54.90263	483.66678	-928.42834	-353.07224	469.86551	-938.28363	-23.83088	75.88406	-976.23071	-368.13916	108.26199	-1195.97949	
76	0.750	-69.67029	1544.58459	-777.02283	25.11938	1492.89490	-1073.38562										-359.60526	1413.91760	-931.44922				-222.20947	1498.74524	-1107.51624				-454.21539	1150.35889	-987.32465	156.03355	964.58234	-1012.31976	-375.37650	1018.92566	-789.27490	23.82305	919.39996	-955.95349	-248.74243	919.90277	-877.66266	-155.50360	947.25330	-1170.18518	58.86180	483.08157	-930.82727	-346.11609	469.93375	-930.72375	-23.17520	75.08553	-976.40857	-367.24191	111.66244	-1192.02148	
77	0.760	-64.67215	1545.44873	-771.94849	29.62842	1493.22168	-1068.16370										-354.57846	1414.30872	-926.31531				-218.12326	1499.09167	-1102.68872				-449.14948	1150.78662	-983.16431	161.48592	965.98883	-1007.99414	-370.80136	1018.47449	-784.90790	28.54895	920.43182	-952.81256	-242.78902	919.94562	-876.46130	-150.80734	947.65625	-1165.70789	62.57877	483.11639	-932.82538	-338.21896	469.51239	-925.35742	-21.87370	74.60316	-976.53809	-366.85956	117.66518	-1188.41394	
78	0.770	-61.81262	1546.70386	-768.43500	33.89674	1494.36951	-1064.55334										-349.97061	1414.67065	-921.27795				-214.19154	1499.69263	-1098.21545				-444.42123	1150.90869	-977.65704	165.94963	966.71167	-1002.44464	-366.44400	1017.72229	-780.83215	35.34964	921.08057	-949.41840	-234.58691	921.33185	-867.20502	-145.99593	949.02197	-1161.88818	66.78539	483.38956	-933.93091	-331.39914	468.56345	-916.49451	-22.23142	74.58918	-976.42877	-366.49530	122.51153	-1183.09326	
79	0.780	-56.72210	1547.50781	-763.27136	38.06086	1494.77856	-1060.33337										-345.00540	1414.84143	-916.07343				-210.30458	1500.10522	-1093.56689				-439.80878	1151.37878	-973.07477	170.62630	967.90582	-997.89313	-362.54520	1017.52930	-776.68036	40.82992	921.40039	-947.12061	-227.04816	922.57611	-859.63239	-141.48433	949.84857	-1157.63843	70.82360	484.35770	-935.39264	-322.67255	469.49496	-908.27167	-22.04851	74.33595	-976.10925	-364.83694	128.78716	-1178.64978	
80	0.790	-51.24560	1547.94629	-758.40143	42.27927	1495.60059	-1056.39734										-338.07950	1414.58997	-909.81744				-206.40897	1500.89075	-1088.73230	123.09103	1190.25415	-1088.66711	-434.67740	1151.71069	-969.14679	175.90521	969.23145	-993.19183	-358.05093	1016.73102	-772.34460	46.42030	922.89484	-944.15753	-220.35637	922.63721	-857.23297	-137.33925	950.22070	-1153.33923	75.05389	484.52670	-937.60089	-313.58340	469.80881	-899.88544	-21.62533	73.37410	-976.24609	-362.70200	134.75826	-1171.08948	
81	0.800	-45.39401	1548.44995	-754.08704	46.64739	1496.43762	-1051.93225							-107.87188	1306.70789	-890.92249	-333.23318	1414.94360	-903.64868				-202.48021	1501.86328	-1084.43787	128.49509	1190.83179	-1082.76135	-430.04657	1152.75659	-964.31097	181.20233	970.57581	-988.19739	-353.71191	1017.03864	-767.42371	51.18674	923.94788	-940.94360	-212.66074	924.27405	-848.92780	-133.48340	951.84210	-1150.86487	79.21344	485.00592	-939.41412	-304.14871	471.21985	-891.41217	-21.62533	73.37410	-976.24609	-362.04697	142.58562	-1162.77295	
82	0.810	-42.45300	1549.79553	-749.76611	-130.04401	952.41620	-1147.62805										-328.93414	1416.14575	-898.80511				-198.73163	1502.12915	-1079.45972	131.76724	1191.95850	-1080.74548	-424.71918	1153.53979	-959.52161	185.33522	971.82458	-983.63666	-349.31622	1016.92804	-762.74951	56.55265	925.13934	-937.75018	-204.93188	925.35278	-845.32770				82.92102	485.40909	-940.95813	-294.20346	471.61005	-882.27405	-21.68206	72.86402	-976.24896	-359.67014	149.76627	-1152.59863	
83	0.820	-36.82613	1550.29102	-745.60822	219.23500	1443.19971	-1031.06873										-323.40622	1416.86035	-893.55054				-194.79965	1503.11450	-1074.90784	136.41602	1192.79309	-1075.03174	-420.59668	1154.51941	-955.74420	190.02885	973.12238	-979.18011	-344.49268	1016.94629	-759.30597	63.61693	927.77441	-934.51343	-197.64627	926.97040	-839.08173				88.03661	486.18274	-942.32526	-284.83197	473.17816	-872.92230	-21.54653	72.69199	-976.71545	-358.52087	156.64096	-1143.08435	
84	0.830	-31.59206	1550.50110	-741.24622	224.90533	1443.81165	-1028.48218										-318.23459	1417.33325	-886.93250				-191.03642	1503.52881	-1070.06116	140.97086	1193.82385	-1072.33325	-415.94318	1154.96289	-950.02722	195.21268	974.65771	-974.16479	-340.34140	1016.96930	-754.30176	67.99715	929.17242	-931.97064	-190.61900	928.16516	-834.03638				91.37709	485.37262	-945.24048	-273.47510	474.10437	-864.68353	-21.08834	72.33452	-976.67694	-356.22305	165.29112	-1131.31934	
85	0.840	-27.11685	1551.69348	-736.49731	229.54674	1445.03748	-1025.29907										-312.58060	1417.42322	-881.03436				-187.17180	1504.24158	-1065.37939	144.64473	1195.00818	-1067.67883	-410.60394	1154.91919	-945.11646	200.21645	975.88245	-969.44098	-334.63327	1016.82013	-749.97217	73.91320	930.33405	-927.93524	-183.75957	929.20880	-829.06683				96.69263	485.59879	-945.87061	-262.26105	475.47546	-854.87030	-20.29475	71.77385	-977.93964	-352.53641	172.38037	-1120.97668	
86	0.850	-22.92227	1552.77283	-732.68610	-119.81450	956.97284	-1137.47827										-307.80991	1418.38232	-876.40222	-79.34191	1310.99390	-872.00330	-183.47415	1504.91260	-1060.72217	149.13174	1195.55359	-1063.42334	-406.58875	1156.18445	-941.06128	204.94092	977.77545	-964.32556	-331.09772	1016.32458	-745.85083	79.74680	931.87732	-925.32245	-177.70987	930.68390	-825.09552				100.54688	485.59729	-948.33209	-250.16740	476.21768	-842.64423	-19.88401	71.54402	-977.39917	-348.63214	181.11887	-1110.42664	
87	0.860	-17.80346	1553.21533	-727.83710													-301.24805	1418.00024	-870.06897	-73.84787	1311.36450	-868.02130	-179.78300	1505.41638	-1055.98120	153.05389	1197.05493	-1059.87549	-402.28497	1157.04285	-936.77271	209.71172	979.01843	-960.49243	-325.80893	1016.41998	-740.89209	84.28844	930.07324	-935.49469	-171.12419	931.43610	-820.63104				104.29053	484.99747	-950.47180	-238.47723	476.99390	-831.05542	-19.57868	71.35265	-977.34058	-345.02075	189.71190	-1098.32825	
88	0.870	-12.69247	1553.79553	-723.66461	-117.08186	956.41534	-1128.07947							74.14493	1503.30872	-1032.08203	-297.05576	1418.81152	-864.75909	-68.69426	1312.20410	-865.05890	-176.29999	1505.80859	-1051.56787	157.46178	1197.66772	-1056.32520	-397.12701	1156.52942	-929.58325	214.58194	980.61774	-955.98517	-321.05304	1016.38214	-737.28864	88.81876	932.72925	-932.36926	-164.09634	934.23480	-813.11029				109.27104	485.72058	-952.25244	-224.04724	477.22498	-818.92688	-19.81006	70.82765	-978.04700	-339.97617	198.21210	-1085.67419	
89	0.880	-6.76947	1554.75867	-718.62195	-116.25261	956.76428	-1124.25171										-291.54056	1419.14697	-858.42224	-64.59676	1312.15759	-861.06824	-172.49962	1506.28296	-1045.70630	162.19896	1199.14099	-1052.20837	-392.67065	1157.53076	-925.72040	219.32732	981.87915	-951.73474	-316.02744	1016.76666	-732.05579	95.23474	933.24347	-928.75037	-157.44377	935.62250	-806.87756				111.94897	485.00552	-955.19910	-209.87486	478.30896	-804.60089	-18.70485	71.21211	-978.13898	-334.67239	205.96736	-1074.00012	
